<mxfile host="app.diagrams.net" agent="Mozilla/5.0 (X11; Linux x86_64) AppleWebKit/537.36 (KHTML, like Gecko) Chrome/133.0.0.0 Safari/537.36" version="26.2.14">
  <diagram name="Page-1" id="gCNdrUl1HYBITplLXTXh">
    <mxGraphModel dx="648" dy="342" grid="1" gridSize="10" guides="1" tooltips="1" connect="1" arrows="1" fold="1" page="1" pageScale="1" pageWidth="850" pageHeight="1100" math="0" shadow="0">
      <root>
        <mxCell id="0" />
        <mxCell id="1" parent="0" />
        <mxCell id="Zt1w1eLrl39iZ9gFTIS_-1" value="" style="rounded=1;whiteSpace=wrap;html=1;" vertex="1" parent="1">
          <mxGeometry x="150" y="240" width="170" height="80" as="geometry" />
        </mxCell>
        <mxCell id="Zt1w1eLrl39iZ9gFTIS_-2" value="" style="ellipse;whiteSpace=wrap;html=1;aspect=fixed;" vertex="1" parent="1">
          <mxGeometry x="220" y="247.5" width="30" height="30" as="geometry" />
        </mxCell>
        <mxCell id="Zt1w1eLrl39iZ9gFTIS_-3" value="" style="ellipse;whiteSpace=wrap;html=1;aspect=fixed;" vertex="1" parent="1">
          <mxGeometry x="227.5" y="255" width="15" height="15" as="geometry" />
        </mxCell>
        <mxCell id="Zt1w1eLrl39iZ9gFTIS_-4" value="Device name&lt;div&gt;Credits&lt;/div&gt;" style="text;html=1;align=center;verticalAlign=middle;whiteSpace=wrap;rounded=0;fontSize=10;" vertex="1" parent="1">
          <mxGeometry x="150" y="290" width="70" height="30" as="geometry" />
        </mxCell>
        <mxCell id="Zt1w1eLrl39iZ9gFTIS_-5" value="" style="endArrow=classic;startArrow=classic;html=1;rounded=0;" edge="1" parent="1">
          <mxGeometry width="50" height="50" relative="1" as="geometry">
            <mxPoint x="150" y="335" as="sourcePoint" />
            <mxPoint x="320" y="335" as="targetPoint" />
          </mxGeometry>
        </mxCell>
        <mxCell id="Zt1w1eLrl39iZ9gFTIS_-6" value="15 cm" style="text;html=1;align=center;verticalAlign=middle;whiteSpace=wrap;rounded=0;" vertex="1" parent="1">
          <mxGeometry x="205" y="335" width="60" height="30" as="geometry" />
        </mxCell>
        <mxCell id="Zt1w1eLrl39iZ9gFTIS_-7" value="" style="endArrow=classic;startArrow=classic;html=1;rounded=0;" edge="1" parent="1">
          <mxGeometry width="50" height="50" relative="1" as="geometry">
            <mxPoint x="335" y="240" as="sourcePoint" />
            <mxPoint x="335" y="320" as="targetPoint" />
          </mxGeometry>
        </mxCell>
        <mxCell id="Zt1w1eLrl39iZ9gFTIS_-8" value="7 cm" style="text;html=1;align=center;verticalAlign=middle;whiteSpace=wrap;rounded=0;" vertex="1" parent="1">
          <mxGeometry x="330" y="265" width="60" height="30" as="geometry" />
        </mxCell>
        <mxCell id="Zt1w1eLrl39iZ9gFTIS_-9" value="" style="rounded=1;whiteSpace=wrap;html=1;" vertex="1" parent="1">
          <mxGeometry x="440" y="240" width="50" height="80" as="geometry" />
        </mxCell>
        <mxCell id="Zt1w1eLrl39iZ9gFTIS_-13" value="" style="endArrow=classic;startArrow=classic;html=1;rounded=0;entryX=1;entryY=0;entryDx=0;entryDy=0;" edge="1" parent="1" target="Zt1w1eLrl39iZ9gFTIS_-14">
          <mxGeometry width="50" height="50" relative="1" as="geometry">
            <mxPoint x="440" y="335" as="sourcePoint" />
            <mxPoint x="480" y="335" as="targetPoint" />
          </mxGeometry>
        </mxCell>
        <mxCell id="Zt1w1eLrl39iZ9gFTIS_-14" value="15 cm" style="text;html=1;align=center;verticalAlign=middle;whiteSpace=wrap;rounded=0;" vertex="1" parent="1">
          <mxGeometry x="435" y="335" width="60" height="30" as="geometry" />
        </mxCell>
        <mxCell id="Zt1w1eLrl39iZ9gFTIS_-15" value="" style="endArrow=classic;startArrow=classic;html=1;rounded=0;" edge="1" parent="1">
          <mxGeometry width="50" height="50" relative="1" as="geometry">
            <mxPoint x="505" y="240" as="sourcePoint" />
            <mxPoint x="505" y="320" as="targetPoint" />
          </mxGeometry>
        </mxCell>
        <mxCell id="Zt1w1eLrl39iZ9gFTIS_-16" value="7 cm" style="text;html=1;align=center;verticalAlign=middle;whiteSpace=wrap;rounded=0;" vertex="1" parent="1">
          <mxGeometry x="500" y="265" width="60" height="30" as="geometry" />
        </mxCell>
        <mxCell id="Zt1w1eLrl39iZ9gFTIS_-17" value="camera" style="text;html=1;align=center;verticalAlign=middle;whiteSpace=wrap;rounded=0;" vertex="1" parent="1">
          <mxGeometry x="247.5" y="170" width="60" height="30" as="geometry" />
        </mxCell>
        <mxCell id="Zt1w1eLrl39iZ9gFTIS_-18" value="" style="endArrow=none;html=1;rounded=0;entryX=0.5;entryY=1;entryDx=0;entryDy=0;exitX=1;exitY=0;exitDx=0;exitDy=0;" edge="1" parent="1" source="Zt1w1eLrl39iZ9gFTIS_-2" target="Zt1w1eLrl39iZ9gFTIS_-17">
          <mxGeometry width="50" height="50" relative="1" as="geometry">
            <mxPoint x="247.5" y="250" as="sourcePoint" />
            <mxPoint x="297.5" y="200" as="targetPoint" />
          </mxGeometry>
        </mxCell>
        <mxCell id="Zt1w1eLrl39iZ9gFTIS_-19" value="" style="rounded=0;whiteSpace=wrap;html=1;" vertex="1" parent="1">
          <mxGeometry x="460" y="270" width="10" height="20" as="geometry" />
        </mxCell>
        <mxCell id="Zt1w1eLrl39iZ9gFTIS_-20" value="" style="endArrow=none;html=1;rounded=0;exitX=0.5;exitY=0;exitDx=0;exitDy=0;" edge="1" parent="1" source="Zt1w1eLrl39iZ9gFTIS_-19">
          <mxGeometry width="50" height="50" relative="1" as="geometry">
            <mxPoint x="380" y="320" as="sourcePoint" />
            <mxPoint x="465" y="220" as="targetPoint" />
          </mxGeometry>
        </mxCell>
        <mxCell id="Zt1w1eLrl39iZ9gFTIS_-21" value="Accelerator sensor" style="text;html=1;align=center;verticalAlign=middle;whiteSpace=wrap;rounded=0;" vertex="1" parent="1">
          <mxGeometry x="435" y="180" width="60" height="30" as="geometry" />
        </mxCell>
      </root>
    </mxGraphModel>
  </diagram>
</mxfile>
